<svg width="10" height="10" viewBox="0 0 10 10" fill="none" xmlns="http://www.w3.org/2000/svg">
<path d="M7.91667 1.24999H7.5V0.833323C7.5 0.604156 7.3125 0.416656 7.08333 0.416656C6.85417 0.416656 6.66667 0.604156 6.66667 0.833323V1.24999H3.33333V0.833323C3.33333 0.604156 3.14583 0.416656 2.91667 0.416656C2.6875 0.416656 2.5 0.604156 2.5 0.833323V1.24999H2.08333C1.62083 1.24999 1.25417 1.62499 1.25417 2.08332L1.25 7.91666C1.25 8.37499 1.62083 8.74999 2.08333 8.74999H7.91667C8.375 8.74999 8.75 8.37499 8.75 7.91666V2.08332C8.75 1.62499 8.375 1.24999 7.91667 1.24999ZM7.5 7.91666H2.5C2.27083 7.91666 2.08333 7.72916 2.08333 7.49999V3.33332H7.91667V7.49999C7.91667 7.72916 7.72917 7.91666 7.5 7.91666ZM3.33333 4.16666H4.58333C4.8125 4.16666 5 4.35416 5 4.58332V5.83332C5 6.06249 4.8125 6.24999 4.58333 6.24999H3.33333C3.10417 6.24999 2.91667 6.06249 2.91667 5.83332V4.58332C2.91667 4.35416 3.10417 4.16666 3.33333 4.16666Z" fill="#DDCC33" fill-opacity="0.5"/>
</svg>
