<svg width="11" height="10" viewBox="0 0 11 10" fill="none" xmlns="http://www.w3.org/2000/svg">
<g opacity="0.5">
<path d="M9.33953 3.23639V0.899449C9.33953 0.600539 9.09497 0.355975 8.79606 0.355975H8.25258C7.95367 0.355975 7.70911 0.600539 7.70911 0.899449V1.76901L5.89934 0.138586C5.69282 -0.0461953 5.37761 -0.0461953 5.17109 0.138586L0.627646 4.23094C0.442865 4.39399 0.556994 4.70377 0.806992 4.70377H1.7309V8.50808C1.7309 8.80699 1.97546 9.05156 2.27437 9.05156H3.90479C4.2037 9.05156 4.44827 8.80699 4.44827 8.50808V5.79071H6.62216V8.50808C6.62216 8.80699 6.86673 9.05156 7.16564 9.05156H8.79606C9.09497 9.05156 9.33953 8.80699 9.33953 8.50808V4.70377H10.2634C10.5134 4.70377 10.633 4.39399 10.4428 4.23094L9.33953 3.23639ZM4.44827 3.61682C4.44827 3.019 4.93739 2.52987 5.53522 2.52987C6.13304 2.52987 6.62216 3.019 6.62216 3.61682H4.44827Z" fill="#B087F2"/>
</g>
</svg>
